# xmcd CD database file
#
# Track frame offsets:
#	150
#	43622
#	92200
#	120810
#	160821
#	197953
#	214403
#	253347
#	279897
#	305617
#
# Disc length: 4287 seconds
#
# Revision: 1
# Processed by: cddbd v1.5.2PL0 Copyright (c) Steve Scherf et al.
# Submitted via: jetAudio 7
#
DISCID=8d10bd0a
DTITLE=Maneesh de Moor - Om Deeksha
DYEAR=2007
DGENRE=New Age
TTITLE0=Moola Prayer
TTITLE1=Bliss
TTITLE2=Jai Radha Madhav
TTITLE3=Morning Praise
TTITLE4=Invocation of Bliss
TTITLE5=Interlude
TTITLE6=Om Bhagavan
TTITLE7=Chidananda
TTITLE8=Pure Essence
TTITLE9=Guru Stotram
EXTD=YEAR: 2007
EXTT0=
EXTT1=
EXTT2=
EXTT3=
EXTT4=
EXTT5=
EXTT6=
EXTT7=
EXTT8=
EXTT9=
PLAYORDER=
